inDegrees=yes
name=ik_lifting_orientations
DataType=double
version=3
OpenSimVersion=4.5-2024-01-10-34fd6af
endheader
time	pelvis_tilt	pelvis_list	pelvis_rotation	pelvis_tx	pelvis_ty	pelvis_tz	hip_flexion_r	hip_adduction_r	hip_rotation_r	knee_angle_r	knee_angle_r_beta	ankle_angle_r	subtalar_angle_r	mtp_angle_r	hip_flexion_l	hip_adduction_l	hip_rotation_l	knee_angle_l	knee_angle_l_beta	ankle_angle_l	subtalar_angle_l	mtp_angle_l	lumbar_extension	lumbar_bending	lumbar_rotation	arm_flex_r	arm_add_r	arm_rot_r	elbow_flex_r	pro_sup_r	wrist_flex_r	wrist_dev_r	arm_flex_l	arm_add_l	arm_rot_l	elbow_flex_l	pro_sup_l	wrist_flex_l	wrist_dev_l
0.02	-0.006131915690731896	0.003277923096090709	-90.70514184526122	0	0.9399999998679526	0	45.60075886396727	-11.96498796418872	0	59.55870060100659	1.039495423697091	-5.942756877399068	0	0	45.60075886396727	-11.96498796418872	0	59.55870060100659	1.039495423697091	-5.942756877399068	0	0	0.003637528513601985	0.004249021750478119	0.004927094527361665	-0.2332933868171932	-0.05654752778540561	-0.008993464762489405	0.4903474310453032	3.793370323732386	0	0	0	-9.936756023607092	0	86.3205486950695	3.793370323732386	0	0
0.03	-0.08993884275764584	-0.08051350168716365	-91.21992268935855	0	0.9399999998679526	0	45.60060702621015	-11.96328539625707	0	59.55878966920756	1.039496978230456	-5.941697408640437	0	0	45.60060702621015	-11.96328539625707	0	59.55878966920756	1.039496978230456	-5.941697408640437	0	0	-0.1397287154941307	0.1454650903043518	0.5166122731771774	-0.2265271036441077	-0.08687383022810878	0.02155941828648044	0.5409001591390433	3.792697794159475	0	0	0	-9.937420583736174	0	86.32120093337826	3.792697794159475	0	0
0.04	-0.1862559750673943	-0.169092657034103	-91.68307495627305	0	0.9399999998679526	0	45.60048625902858	-11.96194754481528	0	59.5588611233574	1.039498225340635	-5.940867038649252	0	0	45.60048625902858	-11.96194754481528	0	59.5588611233574	1.039498225340635	-5.940867038649252	0	0	-0.3594959397868154	0.367100685822304	1.103380249579982	-0.128561817573358	-0.179081133838437	-0.09858645090868286	0.5156003496593675	3.792161061521894	0	0	0	-9.937952464727291	0	86.32172147296994	3.792161061521894	0	0
0.05	-0.3248937510458515	-0.2872784930305612	-92.09899544593398	0	0.9399999998679526	0	45.60034072284434	-11.96034982744601	0	59.55894783519955	1.039499738747781	-5.939877091862385	0	0	45.60034072284434	-11.96034982744601	0	59.55894783519955	1.039499738747781	-5.939877091862385	0	0	-0.6426727528058999	0.6449613992342441	1.662320820529226	0.02540025756235106	-0.3331509206587482	-0.2469500952381294	0.5296181796239919	3.791512480680038	0	0	0	-9.938596672445424	0	86.3223504873344	3.791512480680038	0	0
0.06	-0.5124863757413161	-0.4511501764591999	-92.85144426689611	0	0.9399999998679526	0	45.60020767547822	-11.95887680369037	0	59.55902653811797	1.039501112372839	-5.938963120201301	0	0	45.60020767547822	-11.95887680369037	0	59.55902653811797	1.039501112372839	-5.938963120201301	0	0	-1.081447369761256	1.060860881189095	2.648964220292253	0.188653947717714	-0.5921991221503755	-0.4729290445771741	0.5312666590815203	3.790921164414418	0	0	0	-9.939182634183195	0	86.32292396379864	3.790921164414418	0	0
0.07000000000000001	-0.7076831734533197	-0.6037842373019662	-93.61109346982724	0	0.9399999998679526	0	45.60005876358883	-11.95727196657408	0	59.55911645812392	1.039502681773006	-5.937972492628515	0	0	45.60005876358883	-11.95727196657408	0	59.55911645812392	1.039502681773006	-5.937972492628515	0	0	-1.626747924842553	1.547476871378956	3.955857789259267	0.5036803890283452	-0.9687329594981093	-1.025275741700524	0.5429445909852546	3.790254005761443	0	0	0	-9.93984824522984	0	86.323570997487	3.790254005761443	0	0
0.08	-0.9018330691339913	-0.7671213631758417	-94.45512017504994	0	0.9399999998679526	0	45.59992177613123	-11.95575136778418	0	59.55919726802473	1.039504092171843	-5.937028751244052	0	0	45.59992177613123	-11.95575136778418	0	59.55919726802473	1.039504092171843	-5.937028751244052	0	0	-2.020883848743822	1.857995454616671	4.991916030881271	0.6321472739756305	-1.147769577756025	-1.250539623385232	0.520061455177219	3.789645767201279	0	0	0	-9.940450463937344	0	86.32416088539061	3.789645767201279	0	0
0.09	-1.129476090785879	-0.9487930575028756	-94.85726953511977	0	0.9399999998679526	0	45.59975033938406	-11.95383512965396	0	59.55929776712851	1.039505846212099	-5.935838209650231	0	0	45.59975033938406	-11.95383512965396	0	59.55929776712851	1.039505846212099	-5.935838209650231	0	0	-2.687930615548995	2.422830654027186	5.946587563351103	0.9871961455877127	-1.629388227496797	-1.764962745929951	0.5400522511668029	3.788886346312137	0	0	0	-9.941200843036007	0	86.32489739344234	3.788886346312137	0	0
0.1	-1.349953326876967	-1.118167533063517	-95.25248893780036	0	0.9399999998679526	0	45.59957369796984	-11.9518537035398	0	59.55940096530138	1.039507647359998	-5.934606573468783	0	0	45.59957369796984	-11.9518537035398	0	59.55940096530138	1.039507647359998	-5.934606573468783	0	0	-3.451109728214224	3.021185418121692	7.201579762646413	1.454896032786736	-2.154498116953384	-2.614904915942	0.5316118823833128	3.788104838716451	0	0	0	-9.941972209536425	0	86.32565532128109	3.788104838716451	0	0
0.11	-1.638876461169506	-1.352738028422625	-95.51567611646013	0	0.9399999998679526	0	45.59936670651186	-11.94950296323834	0	59.55952070382087	1.039509737191405	-5.933141990223617	0	0	45.59936670651186	-11.94950296323834	0	59.55952070382087	1.039509737191405	-5.933141990223617	0	0	-4.46057273507041	3.80921557039426	8.493941025684148	1.997041365986078	-2.873368216695028	-3.524786808649074	0.5118898941114733	3.787192489845878	0	0	0	-9.94286983998941	0	86.32654014074832	3.787192489845878	0	0
0.12	-1.928508286415276	-1.586734324859427	-95.70579312796029	0	0.9399999998679526	0	45.59920368483591	-11.94765927915621	0	59.55961525410969	1.039511387405253	-5.931994481182802	0	0	45.59920368483591	-11.94765927915621	0	59.55961525410969	1.039511387405253	-5.931994481182802	0	0	-5.475280347212245	4.592598405113712	9.735413021793924	2.584422528294261	-3.58332102422488	-4.457137290295059	0.4918372161486915	3.786473169088468	0	0	0	-9.943578186575584	0	86.32723775701025	3.786473169088468	0	0
0.13	-2.211642899821564	-1.812608070489798	-96.04324999603972	0	0.9399999998679526	0	45.59904723379339	-11.94588703456796	0	59.55970585767444	1.039512968735772	-5.930891174212134	0	0	45.59904723379339	-11.94588703456796	0	59.55970585767444	1.039512968735772	-5.930891174212134	0	0	-6.56113124989495	5.511514444486356	9.234700731633982	3.241456447173805	-4.413874984432193	-3.475677690215941	0.5052277140827046	3.785783208807904	0	0	0	-9.944257310039124	0	86.32790689851426	3.785783208807904	0	0
0.14	-2.60702639278631	-2.107625447121386	-96.52037788638205	0	0.9399999998679526	0	45.59879390401821	-11.94301844164179	0	59.55985252488947	1.039515528561579	-5.929105792366288	0	0	45.59879390401821	-11.94301844164179	0	59.55985252488947	1.039515528561579	-5.929105792366288	0	0	-7.801098819770593	6.509616845590178	9.282062163250695	3.979109059557627	-5.299003222924826	-2.839990661084497	0.5213140005385071	3.784666042434238	0	0	0	-9.94535687521916	0	86.32899035564515	3.784666042434238	0	0
0.15	-3.052159245649041	-2.433017913931983	-97.00122287288616	0	0.9399999998679526	0	45.59861764126167	-11.94103519816199	0	59.55995498816461	1.039517316883093	-5.927873323488388	0	0	45.59861764126167	-11.94103519816199	0	59.55995498816461	1.039517316883093	-5.927873323488388	0	0	-9.576743500464655	7.815621992845867	10.38899227875356	5.040515811147993	-6.59176467133748	-3.111970321986449	0.4983469835047769	3.783887447691768	0	0	0	-9.946124248924635	0	86.32974545788322	3.783887447691768	0	0
